# xmcd CD Database Entry
#
# Track frame offsets:
# 150
# 11305
# 25182
# 42540
# 56630
# 71480
# 82202
# 94022
# 106400
# 120865
# 134160
# 145760
# 156655
# 168905
# 180962
# 195390
# 208000
# 219305
# 232692
# 244807
# 259092
# 270515
# 280845
# 300462
# 312777
#
# Disc length: 4400 seconds
#
# Revision: 1
# Processed by: cddbd v1.5.1PL0 Copyright (c) Steve Scherf et al.
# Submitted via: tcd 2.0b
#
DISCID=56112e19
DTITLE=Inconnu - Inconnu
DYEAR=1900
DGENRE=
TTITLE0=Piste 1
TTITLE1=Piste 2
TTITLE2=Piste 3
TTITLE3=Piste 4
TTITLE4=Piste 5
TTITLE5=Piste 6
TTITLE6=Piste 7
TTITLE7=Piste 8
TTITLE8=Piste 9
TTITLE9=Piste 10
TTITLE10=Piste 11
TTITLE11=Piste 12
TTITLE12=Piste 13
TTITLE13=Piste 14
TTITLE14=Piste 15
TTITLE15=Piste 16
TTITLE16=Piste 17
TTITLE17=Piste 18
TTITLE18=Piste 19
TTITLE19=Piste 20
TTITLE20=Piste 21
TTITLE21=Piste 22
TTITLE22=Piste 23
TTITLE23=Piste 24
TTITLE24=Piste 25
EXTD=
EXTT0=
EXTT1=
EXTT2=
EXTT3=
EXTT4=
EXTT5=
EXTT6=
EXTT7=
EXTT8=
EXTT9=
EXTT10=
EXTT11=
EXTT12=
EXTT13=
EXTT14=
EXTT15=
EXTT16=
EXTT17=
EXTT18=
EXTT19=
EXTT20=
EXTT21=
EXTT22=
EXTT23=
EXTT24=
PLAYORDER=
